####
#
# OBJ File Generated by Meshlab
#
####
# Object test.obj
#
# Vertices: 6
# Faces: 8
#
####
vn 1.000000 0.000000 0.000000
v 1.000000 0.000000 0.000000
vn 0.000000 1.000000 0.000000
v 0.000000 1.000000 0.000000
vn 0.000000 0.000000 1.000000
v 0.000000 0.000000 1.000000
vn -1.000000 0.000000 0.000000
v -1.000000 0.000000 0.000000
vn 0.000000 -1.000000 0.000000
v 0.000000 -1.000000 0.000000
vn 0.000000 0.000000 -1.000000
v 0.000000 0.000000 -1.000000
# 6 vertices, 0 vertices normals

f 1//1 2//2 3//3
f 1//1 3//3 5//5
f 1//1 5//5 6//6
f 1//1 6//6 2//2
f 4//4 2//2 6//6
f 4//4 6//6 5//5
f 4//4 5//5 3//3
f 4//4 3//3 2//2
# 8 faces, 0 coords texture

# End of File
